<svg width="206" height="44" viewBox="0 0 206 44" fill="none" xmlns="http://www.w3.org/2000/svg">
<g filter="url(#filter0_i_1070_2)">
<path d="M3.72 6.28L0.6 5.76V3.28H6.56C7.46667 3.28 8.64 3.22667 10.08 3.12C10.4267 3.09333 10.84 3.06667 11.32 3.04C11.8 3.01333 12.36 3 13 3C17.0267 3 19.84 3.57333 21.44 4.72C23.0667 5.84 23.88 7.52 23.88 9.76C23.88 11.7333 23.28 13.3867 22.08 14.72C20.9067 16.0267 19.36 16.8267 17.44 17.12C20.08 17.0933 22.1467 17.6933 23.64 18.92C25.16 20.1467 25.92 21.8533 25.92 24.04C25.92 26.8133 24.9467 29.04 23 30.72C21.0533 32.4 17.8 33.24 13.24 33.24C12.04 33.24 10.9333 33.2 9.92 33.12C9.65333 33.12 9.2 33.0933 8.56 33.04C7.92 33.0133 7.26667 33 6.6 33H0.56V30.6L3.72 30.2V6.28ZM9.52 16.24C9.81333 16.2667 10.4133 16.28 11.32 16.28H13.2C14.8267 16.28 16.04 15.7733 16.84 14.76C17.64 13.7467 18.04 12.32 18.04 10.48C18.04 8.72 17.6267 7.44 16.8 6.64C15.9733 5.84 14.6 5.44 12.68 5.44C12.1733 5.44 11.12 5.49333 9.52 5.6V16.24ZM9.52 30.36C10.1333 30.6 11.3067 30.72 13.04 30.72C15.3067 30.72 16.9467 30.1867 17.96 29.12C18.9733 28.0533 19.48 26.5067 19.48 24.48C19.48 22.5333 19.0133 21.1467 18.08 20.32C17.1733 19.4667 15.72 19.04 13.72 19.04C11.48 19.04 10.08 19.0667 9.52 19.12V30.36ZM31.3231 3.76L28.3631 3.24V1.08L35.7631 0.199998H35.8431L36.9231 0.959998V30.28L39.8431 30.6V33H28.5231V30.6L31.3231 30.24V3.76ZM42.5969 21.92C42.5969 19.4133 43.0902 17.28 44.0769 15.52C45.0902 13.76 46.4369 12.44 48.1169 11.56C49.7969 10.6533 51.6235 10.2 53.5969 10.2C56.9569 10.2 59.5435 11.24 61.3569 13.32C63.1969 15.3733 64.1169 18.1733 64.1169 21.72C64.1169 24.2533 63.6102 26.4133 62.5969 28.2C61.6102 29.96 60.2769 31.28 58.5969 32.16C56.9435 33.0133 55.1169 33.44 53.1169 33.44C49.7835 33.44 47.1969 32.4133 45.3569 30.36C43.5169 28.28 42.5969 25.4667 42.5969 21.92ZM53.4369 30.84C56.4502 30.84 57.9569 27.9333 57.9569 22.12C57.9569 19.08 57.5969 16.7733 56.8769 15.2C56.1569 13.6 54.9835 12.8 53.3569 12.8C50.2635 12.8 48.7169 15.7067 48.7169 21.52C48.7169 24.56 49.0902 26.88 49.8369 28.48C50.6102 30.0533 51.8102 30.84 53.4369 30.84ZM77.4331 43.8C73.8598 43.8 71.2731 43.24 69.6731 42.12C68.0731 41 67.2731 39.48 67.2731 37.56C67.2731 36.4667 67.6331 35.4267 68.3531 34.44C69.0998 33.48 69.9931 32.76 71.0331 32.28C69.8065 31.56 69.1931 30.4133 69.1931 28.84C69.1931 27.9333 69.4865 27.08 70.0731 26.28C70.6598 25.4533 71.4198 24.8133 72.3531 24.36C70.8865 23.8 69.7931 22.9467 69.0731 21.8C68.3531 20.6533 67.9931 19.2933 67.9931 17.72C67.9931 16.2 68.4331 14.88 69.3131 13.76C70.2198 12.6133 71.4198 11.7333 72.9131 11.12C74.4331 10.5067 76.0731 10.2 77.8331 10.2C80.9531 10.2 83.2731 10.8 84.7931 12C85.1398 11.5467 85.7265 11.12 86.5531 10.72C87.3798 10.32 88.2331 10.12 89.1131 10.12H90.5131V14.48H86.3931C86.7931 15.3333 86.9931 16.24 86.9931 17.2C87.0198 19.6267 86.1665 21.5733 84.4331 23.04C82.6998 24.48 80.3265 25.2 77.3131 25.2C76.0598 25.2 75.0065 25.1067 74.1531 24.92C73.8865 25.2667 73.6731 25.64 73.5131 26.04C73.3798 26.4133 73.3131 26.7467 73.3131 27.04C73.3131 27.92 73.6198 28.52 74.2331 28.84C74.8731 29.16 76.0065 29.32 77.6331 29.32H81.9131C87.3531 29.32 90.0731 31.2933 90.0731 35.24C90.0731 36.8933 89.4865 38.3733 88.3131 39.68C87.1398 40.9867 85.5798 42 83.6331 42.72C81.6865 43.44 79.6198 43.8 77.4331 43.8ZM77.7131 22.72C80.1931 22.72 81.4331 21.0267 81.4331 17.64C81.4331 15.9067 81.1131 14.64 80.4731 13.84C79.8598 13.0133 78.9131 12.6 77.6331 12.6C76.3798 12.6 75.4065 13.0133 74.7131 13.84C74.0465 14.64 73.7131 15.8533 73.7131 17.48C73.7131 20.9733 75.0465 22.72 77.7131 22.72ZM78.0331 41.04C79.7131 41.04 81.1665 40.6267 82.3931 39.8C83.6198 39 84.2331 37.88 84.2331 36.44C84.2331 35.2933 83.9265 34.4667 83.3131 33.96C82.7265 33.4533 81.6598 33.2 80.1131 33.2H75.7531C75.0865 33.2 74.4731 33.16 73.9131 33.08C73.1931 34.04 72.8331 35.1867 72.8331 36.52C72.8331 37.9867 73.2331 39.1067 74.0331 39.88C74.8331 40.6533 76.1665 41.04 78.0331 41.04ZM105.568 5.76L102.448 5.28V3.28H107.768C108.728 3.28 109.675 3.24 110.608 3.16C112.048 3.05333 113.408 3 114.688 3C118.555 3.02667 121.288 3.74667 122.888 5.16C124.488 6.57333 125.288 8.70667 125.288 11.56C125.288 13.6933 124.795 15.5467 123.808 17.12C122.821 18.6933 121.448 19.8933 119.688 20.72C117.955 21.5467 115.955 21.96 113.688 21.96C112.915 21.96 112.128 21.9467 111.328 21.92C110.528 21.8667 110.035 21.8267 109.848 21.8V30.6L115.328 31.04V33H102.248V31.04L105.568 30.64V5.76ZM109.848 19.6C110.595 19.7333 111.875 19.8 113.688 19.8C115.795 19.8 117.501 19.16 118.808 17.88C120.141 16.6 120.808 14.5067 120.808 11.6C120.808 9.30666 120.235 7.66666 119.088 6.68C117.941 5.66666 116.155 5.16 113.728 5.16C112.875 5.16 111.968 5.21333 111.008 5.32C110.421 5.37333 110.035 5.4 109.848 5.4V19.6ZM128.105 21.84C128.105 19.44 128.598 17.36 129.585 15.6C130.571 13.84 131.865 12.5067 133.465 11.6C135.091 10.6667 136.825 10.2 138.665 10.2C142.025 10.2 144.545 11.2667 146.225 13.4C147.931 15.5333 148.785 18.3333 148.785 21.8C148.785 24.2267 148.291 26.32 147.305 28.08C146.318 29.84 145.011 31.1733 143.385 32.08C141.785 32.9867 140.065 33.44 138.225 33.44C134.865 33.44 132.331 32.3733 130.625 30.24C128.945 28.1067 128.105 25.3067 128.105 21.84ZM138.465 31.16C140.305 31.16 141.718 30.4 142.705 28.88C143.691 27.36 144.185 25.1067 144.185 22.12C144.185 19.16 143.731 16.8133 142.825 15.08C141.918 13.3467 140.465 12.48 138.465 12.48C136.625 12.48 135.198 13.24 134.185 14.76C133.198 16.28 132.705 18.5333 132.705 21.52C132.705 24.48 133.171 26.8267 134.105 28.56C135.038 30.2933 136.491 31.16 138.465 31.16ZM156.161 29.8C156.427 30.2 156.987 30.56 157.841 30.88C158.721 31.2 159.641 31.36 160.601 31.36C162.121 31.36 163.241 31.0667 163.961 30.48C164.681 29.8933 165.041 29.08 165.041 28.04C165.041 27.32 164.814 26.6933 164.361 26.16C163.907 25.6267 163.267 25.16 162.441 24.76C161.641 24.3333 160.481 23.8267 158.961 23.24C156.907 22.4667 155.401 21.5467 154.441 20.48C153.507 19.3867 153.041 17.96 153.041 16.2C153.041 15.0267 153.387 14 154.081 13.12C154.801 12.24 155.774 11.56 157.001 11.08C158.254 10.5733 159.641 10.32 161.161 10.32C162.387 10.32 163.454 10.4133 164.361 10.6C165.294 10.7867 166.041 10.9733 166.601 11.16C167.161 11.3467 167.534 11.4667 167.721 11.52V16.48H165.281L164.481 13.52C164.321 13.2 163.894 12.9333 163.201 12.72C162.507 12.48 161.734 12.36 160.881 12.36C159.681 12.36 158.707 12.6267 157.961 13.16C157.241 13.6933 156.881 14.4133 156.881 15.32C156.881 16.12 157.067 16.7867 157.441 17.32C157.841 17.8267 158.334 18.24 158.921 18.56C159.507 18.88 160.307 19.2533 161.321 19.68L162.121 20C163.614 20.5867 164.827 21.1467 165.761 21.68C166.694 22.2133 167.467 22.92 168.081 23.8C168.721 24.6533 169.041 25.7067 169.041 26.96C169.041 28.9333 168.267 30.5067 166.721 31.68C165.201 32.8533 163.107 33.44 160.441 33.44C159.134 33.44 157.761 33.2667 156.321 32.92C154.907 32.5467 153.747 32.1733 152.841 31.8V26.68H155.441L156.161 29.8ZM179.476 33.4C177.956 33.4 176.823 33.0533 176.076 32.36C175.329 31.6667 174.956 30.48 174.956 28.8V13.44H172.076V11.64C172.209 11.6133 172.583 11.52 173.196 11.36C173.809 11.2 174.223 11.0533 174.436 10.92C174.863 10.68 175.196 10.2 175.436 9.48C175.649 8.97333 175.903 8.16 176.196 7.04C176.489 5.92 176.663 5.25333 176.716 5.04H179.076L179.156 10.8H185.836V13.44H179.156V25.72C179.156 27.24 179.196 28.3067 179.276 28.92C179.383 29.5333 179.583 29.9333 179.876 30.12C180.196 30.3067 180.729 30.4 181.476 30.4C182.196 30.4 182.983 30.3067 183.836 30.12C184.716 29.9333 185.396 29.7333 185.876 29.52L186.476 31.32C185.836 31.8 184.796 32.2667 183.356 32.72C181.943 33.1733 180.649 33.4 179.476 33.4ZM192.645 29.8C192.912 30.2 193.472 30.56 194.325 30.88C195.205 31.2 196.125 31.36 197.085 31.36C198.605 31.36 199.725 31.0667 200.445 30.48C201.165 29.8933 201.525 29.08 201.525 28.04C201.525 27.32 201.298 26.6933 200.845 26.16C200.392 25.6267 199.752 25.16 198.925 24.76C198.125 24.3333 196.965 23.8267 195.445 23.24C193.392 22.4667 191.885 21.5467 190.925 20.48C189.992 19.3867 189.525 17.96 189.525 16.2C189.525 15.0267 189.872 14 190.565 13.12C191.285 12.24 192.258 11.56 193.485 11.08C194.738 10.5733 196.125 10.32 197.645 10.32C198.872 10.32 199.938 10.4133 200.845 10.6C201.778 10.7867 202.525 10.9733 203.085 11.16C203.645 11.3467 204.018 11.4667 204.205 11.52V16.48H201.765L200.965 13.52C200.805 13.2 200.378 12.9333 199.685 12.72C198.992 12.48 198.218 12.36 197.365 12.36C196.165 12.36 195.192 12.6267 194.445 13.16C193.725 13.6933 193.365 14.4133 193.365 15.32C193.365 16.12 193.552 16.7867 193.925 17.32C194.325 17.8267 194.818 18.24 195.405 18.56C195.992 18.88 196.792 19.2533 197.805 19.68L198.605 20C200.098 20.5867 201.312 21.1467 202.245 21.68C203.178 22.2133 203.952 22.92 204.565 23.8C205.205 24.6533 205.525 25.7067 205.525 26.96C205.525 28.9333 204.752 30.5067 203.205 31.68C201.685 32.8533 199.592 33.44 196.925 33.44C195.618 33.44 194.245 33.2667 192.805 32.92C191.392 32.5467 190.232 32.1733 189.325 31.8V26.68H191.925L192.645 29.8Z" fill="white"/>
</g>
<defs>
<filter id="filter0_i_1070_2" x="0.55957" y="0.200195" width="204.966" height="47.5996" filterUnits="userSpaceOnUse" color-interpolation-filters="sRGB">
<feFlood flood-opacity="0" result="BackgroundImageFix"/>
<feBlend mode="normal" in="SourceGraphic" in2="BackgroundImageFix" result="shape"/>
<feColorMatrix in="SourceAlpha" type="matrix" values="0 0 0 0 0 0 0 0 0 0 0 0 0 0 0 0 0 0 127 0" result="hardAlpha"/>
<feOffset dy="5"/>
<feGaussianBlur stdDeviation="2"/>
<feComposite in2="hardAlpha" operator="arithmetic" k2="-1" k3="1"/>
<feColorMatrix type="matrix" values="0 0 0 0 0 0 0 0 0 0 0 0 0 0 0 0 0 0 0.25 0"/>
<feBlend mode="normal" in2="shape" result="effect1_innerShadow_1070_2"/>
</filter>
</defs>
</svg>
